<?xml version="1.0" encoding="iso-8859-1"?>
<!-- Generator: Adobe Illustrator 16.0.0, SVG Export Plug-In . SVG Version: 6.00 Build 0)  -->
<!DOCTYPE svg PUBLIC "-//W3C//DTD SVG 1.1//EN" "http://www.w3.org/Graphics/SVG/1.1/DTD/svg11.dtd">
<svg version="1.1" id="Layer_1" xmlns="http://www.w3.org/2000/svg" xmlns:xlink="http://www.w3.org/1999/xlink" x="0px" y="0px"
	 width="600px" height="300px" viewBox="0 0 600 300" style="enable-background:new 0 0 600 300;" xml:space="preserve">
<g>
	<path style="fill:#CC0000;" d="M599.961,268.456v-15.788c-4.359,0-7.895-3.536-7.895-7.896c0-4.358,3.535-7.894,7.895-7.894V221.09
		c-4.359,0-7.895-3.536-7.895-7.896s3.535-7.894,7.895-7.894v-15.79c-4.359,0-7.895-3.534-7.895-7.895s3.535-7.896,7.895-7.896
		v-15.788c-4.359,0-7.895-3.536-7.895-7.896c0-4.36,3.535-7.895,7.895-7.895v-15.789c-4.359,0-7.895-3.536-7.895-7.896
		c0-4.359,3.535-7.894,7.895-7.894v-15.79c-4.359,0-7.895-3.535-7.895-7.895c0-4.36,3.535-7.895,7.895-7.895v-15.79
		c-4.359,0-7.895-3.535-7.895-7.895c0-4.36,3.535-7.895,7.895-7.895V31.615c-17.439,0-31.578-14.139-31.578-31.58H31.54
		c0,17.441-14.139,31.58-31.58,31.58v15.789c4.36,0,7.895,3.535,7.895,7.895c0,4.36-3.535,7.895-7.895,7.895v15.79
		c4.36,0,7.895,3.535,7.895,7.895c0,4.36-3.535,7.895-7.895,7.895v15.79c4.36,0,7.895,3.535,7.895,7.894
		c0,4.36-3.535,7.896-7.895,7.896v15.789c4.36,0,7.895,3.535,7.895,7.895c0,4.36-3.535,7.896-7.895,7.896v15.788
		c4.36,0,7.895,3.535,7.895,7.896s-3.535,7.895-7.895,7.895v15.79c4.36,0,7.895,3.533,7.895,7.894s-3.535,7.896-7.895,7.896v15.788
		c4.36,0,7.895,3.535,7.895,7.894c0,4.36-3.535,7.896-7.895,7.896v15.788c17.441,0,31.58,14.139,31.58,31.578h536.843
		C568.383,282.595,582.521,268.456,599.961,268.456z"/>
	<path style="opacity:0.2;fill:#000100;" d="M542.468,47.403H57.451c-5.582,0-10.123,4.541-10.123,10.123v185.05
		c0,5.581,4.541,10.122,10.123,10.122h485.017c5.582,0,10.123-4.541,10.123-10.122V57.526
		C552.591,51.944,548.05,47.403,542.468,47.403z M101.684,248.242H57.451c-3.125,0-5.667-2.541-5.667-5.666V57.526
		c0-3.125,2.542-5.667,5.667-5.667h44.232V248.242z M106.14,51.859H493.78v196.383H106.14V51.859z M548.135,242.576
		c0,3.125-2.542,5.666-5.667,5.666h-44.231V51.859h44.231c3.125,0,5.667,2.542,5.667,5.667V242.576z"/>
	<g>
		<path style="opacity:0.2;fill:#000100;" d="M520.939,96.257c0.963,0,1.417-0.454,1.417-1.363v-2.166h1.978v2.113
			c0,0.908,0.455,1.363,1.418,1.363h3.583c0.963,0,1.417-0.455,1.417-1.363v-0.536c0-0.908-0.454-1.363-1.417-1.363h-2.675v-2.086
			h2.567c2.326,0,3.477,1.149,3.477,3.476v0.534c0,2.327-1.15,3.476-3.477,3.476h-2.941c-1.604,0-2.406-0.562-2.78-1.55
			c-0.32,1.123-1.043,1.604-2.407,1.604h-3.958c-2.325,0-3.475-1.15-3.475-3.477v-0.695c0-2.298,1.123-3.422,3.423-3.422h2.968
			v2.086h-3.022c-0.961,0-1.416,0.454-1.416,1.417v0.536c0,0.962,0.455,1.416,1.416,1.416H520.939z"/>
		<path style="opacity:0.2;fill:#000100;" d="M522.276,104.68h-1.926v-4.653h1.926V104.68z"/>
		<path style="opacity:0.2;fill:#000100;" d="M513.826,108.85v-2.031h15.376v-1.766h1.657c0.107,1.177,0.454,1.711,1.336,2.38
			l0.429,0.321v1.095H513.826z"/>
		<path style="opacity:0.2;fill:#000100;" d="M519.281,110.856l13.263,4.278v2.647h-13.316v1.311h-1.871v-1.311h-3.53v-1.925h3.53
			v-5H519.281z M519.228,115.856h9.92l-9.92-3.129V115.856z"/>
		<path style="opacity:0.2;fill:#000100;" d="M513.826,123.422v-2.032h15.376v-1.765h1.657c0.107,1.176,0.454,1.711,1.336,2.379
			l0.429,0.321v1.097H513.826z"/>
		<path style="opacity:0.2;fill:#000100;" d="M517.141,133.261c-2.325,0-3.475-1.149-3.475-3.423v-0.534
			c0-2.247,1.123-3.369,3.423-3.369h3.235v2.085h-3.29c-0.961,0-1.416,0.455-1.416,1.364v0.375c0,0.908,0.455,1.363,1.416,1.363
			h5.081c1.016,0,1.497-0.374,1.497-1.229c0-0.695-0.267-1.284-1.068-2.06v-1.792h10v6.953h-1.979v-4.974l-5.856-0.053
			c0.509,0.642,0.883,1.39,0.883,2.406c0,1.711-1.15,2.888-3.075,2.888H517.141z"/>
		<path style="opacity:0.2;fill:#000100;" d="M517.034,140.64h4.761c-0.348-0.641-0.562-1.391-0.562-2.22v-0.079
			c0-1.898,1.257-3.022,3.102-3.022h4.894c2.326,0,3.477,1.15,3.477,3.477v0.481c0,2.326-1.15,3.476-3.477,3.476h-12.087
			c-2.325,0-3.475-1.15-3.475-3.476v-0.508c0-2.353,1.017-3.422,3.368-3.422h2.381v2.058h-2.381c-0.961,0-1.416,0.455-1.416,1.364
			v0.508C515.618,140.186,516.073,140.64,517.034,140.64z M529.335,140.64c0.963,0,1.417-0.454,1.417-1.363v-0.508
			c0-0.909-0.454-1.364-1.417-1.364h-4.599c-1.07,0-1.524,0.508-1.524,1.417c0,0.642,0.187,1.391,0.4,1.818H529.335z"/>
		<path style="opacity:0.2;fill:#000100;" d="M524.469,149.249c0.802,0.642,1.256,0.829,2.032,0.829h2.834
			c0.963,0,1.417-0.455,1.417-1.364v-0.427c0-0.91-0.454-1.364-1.417-1.364h-3.529v-2.086h3.422c2.326,0,3.477,1.15,3.477,3.423
			v0.535c0,2.273-1.15,3.423-3.477,3.423h-2.406c-1.283,0-2.245-0.268-3.636-1.391l-3.798-3.022
			c-0.882-0.722-1.363-0.882-2.486-0.882h-1.097v5.295h-1.979v-7.435h3.208c1.339,0,2.247,0.321,3.638,1.444L524.469,149.249z"/>
		<path style="opacity:0.2;fill:#000100;" d="M524.334,156.36c0.349,0.642,0.589,1.364,0.589,2.22v0.133
			c0,1.899-1.257,3.021-3.102,3.021h-4.681c-2.325,0-3.475-1.148-3.475-3.477v-0.533c0-2.328,1.149-3.477,3.475-3.477h12.087
			c2.326,0,3.477,1.148,3.477,3.477v0.562c0,2.326-1.044,3.368-3.369,3.368h-2.594v-2.059h2.594c0.963,0,1.417-0.454,1.417-1.364
			v-0.507c0-0.909-0.454-1.364-1.417-1.364H524.334z M517.034,156.36c-0.961,0-1.416,0.455-1.416,1.364v0.562
			c0,0.909,0.455,1.362,1.416,1.362h4.386c1.069,0,1.524-0.481,1.524-1.442c0-0.643-0.188-1.419-0.4-1.846H517.034z"/>
		<path style="opacity:0.2;fill:#000100;" d="M517.141,171.2c-2.325,0-3.475-1.149-3.475-3.423v-0.535
			c0-2.246,1.123-3.368,3.423-3.368h3.235v2.084h-3.29c-0.961,0-1.416,0.455-1.416,1.364v0.374c0,0.91,0.455,1.364,1.416,1.364
			h5.081c1.016,0,1.497-0.374,1.497-1.229c0-0.696-0.267-1.284-1.068-2.061v-1.791h10v6.951h-1.979v-4.974l-5.856-0.052
			c0.509,0.642,0.883,1.39,0.883,2.406c0,1.71-1.15,2.888-3.075,2.888H517.141z"/>
		<path style="opacity:0.2;fill:#000100;" d="M520.939,178.552c0.963,0,1.417-0.454,1.417-1.364v-2.165h1.978v2.11
			c0,0.91,0.455,1.364,1.418,1.364h3.583c0.963,0,1.417-0.454,1.417-1.364v-0.532c0-0.91-0.454-1.364-1.417-1.364h-2.675v-2.087
			h2.567c2.326,0,3.477,1.151,3.477,3.477v0.535c0,2.326-1.15,3.476-3.477,3.476h-2.941c-1.604,0-2.406-0.562-2.78-1.552
			c-0.32,1.125-1.043,1.605-2.407,1.605h-3.958c-2.325,0-3.475-1.15-3.475-3.477v-0.694c0-2.3,1.123-3.423,3.423-3.423h2.968v2.085
			h-3.022c-0.961,0-1.416,0.455-1.416,1.419v0.532c0,0.965,0.455,1.419,1.416,1.419H520.939z"/>
		<path style="opacity:0.2;fill:#000100;" d="M517.141,190.182c-2.325,0-3.475-1.148-3.475-3.423v-0.535
			c0-2.245,1.123-3.368,3.423-3.368h3.235v2.085h-3.29c-0.961,0-1.416,0.454-1.416,1.364v0.374c0,0.909,0.455,1.364,1.416,1.364
			h5.081c1.016,0,1.497-0.374,1.497-1.229c0-0.696-0.267-1.283-1.068-2.061v-1.791h10v6.952h-1.979v-4.974l-5.856-0.053
			c0.509,0.643,0.883,1.391,0.883,2.407c0,1.71-1.15,2.887-3.075,2.887H517.141z"/>
		<path style="opacity:0.2;fill:#000100;" d="M532.704,196.225c0,2.325-1.15,3.475-3.477,3.475h-2.887
			c-1.604,0-2.406-0.562-2.781-1.55c-0.321,1.123-1.043,1.604-2.406,1.604h-4.013c-2.325,0-3.475-1.15-3.475-3.477v-0.533
			c0-2.328,1.149-3.477,3.475-3.477h4.013c1.363,0,2.085,0.48,2.406,1.604c0.375-0.988,1.177-1.55,2.781-1.55h2.887
			c2.326,0,3.477,1.149,3.477,3.476V196.225z M517.009,194.324c-0.963,0-1.418,0.455-1.418,1.419v0.533
			c0,0.964,0.455,1.419,1.418,1.419h4.01c0.964,0,1.417-0.455,1.417-1.419v-0.533c0-0.964-0.453-1.419-1.417-1.419H517.009z
			 M524.334,196.25c0,0.962,0.455,1.417,1.418,1.417h3.609c0.963,0,1.418-0.455,1.418-1.417v-0.48c0-0.964-0.455-1.417-1.418-1.417
			h-3.609c-0.963,0-1.418,0.453-1.418,1.417V196.25z"/>
		<path style="opacity:0.2;fill:#000100;" d="M517.034,207.187h4.761c-0.348-0.643-0.562-1.391-0.562-2.22v-0.08
			c0-1.897,1.257-3.022,3.102-3.022h4.894c2.326,0,3.477,1.15,3.477,3.477v0.481c0,2.325-1.15,3.477-3.477,3.477h-12.087
			c-2.325,0-3.475-1.151-3.475-3.477v-0.508c0-2.354,1.017-3.422,3.368-3.422h2.381v2.058h-2.381c-0.961,0-1.416,0.455-1.416,1.364
			v0.508C515.618,206.731,516.073,207.187,517.034,207.187z M529.335,207.187c0.963,0,1.417-0.455,1.417-1.364v-0.508
			c0-0.909-0.454-1.364-1.417-1.364h-4.599c-1.07,0-1.524,0.508-1.524,1.417c0,0.642,0.187,1.391,0.4,1.819H529.335z"/>
	</g>
	<g>
		<g>
			<path style="opacity:0.2;fill:#000100;" d="M71.359,96.552l14.733,2.379v3.316H67.375v-2.086h15.481l-15.481-2.566v-2.193
				l15.481-2.567H67.375v-2.032h18.717v3.369L71.359,96.552z"/>
			<path style="opacity:0.2;fill:#000100;" d="M67.375,112.487v-2.113l3.128-0.455v-3.449l-3.128-0.428v-2.06l18.771,2.889v2.727
				L67.375,112.487z M72.429,106.739v2.915l10.348-1.444L72.429,106.739z"/>
			<path style="opacity:0.2;fill:#000100;" d="M86.092,114.224v3.53c0,2.808-1.336,4.144-4.144,4.144H71.52
				c-2.807,0-4.144-1.336-4.144-4.144v-3.53H86.092z M69.327,116.362v1.284c0,1.445,0.722,2.113,2.166,2.113h10.481
				c1.444,0,2.166-0.668,2.166-2.113v-1.284H69.327z"/>
			<path style="opacity:0.2;fill:#000100;" d="M86.092,130.025h-1.978v-3.743h-6.204v3.609h-1.952v-3.609h-6.604v3.797h-1.979
				v-5.936h18.717V130.025z"/>
		</g>
		<g>
			<path style="opacity:0.2;fill:#000100;" d="M67.375,137.196v-2.139h18.717v2.139H67.375z"/>
			<path style="opacity:0.2;fill:#000100;" d="M86.092,145.564v2.032H67.375v-2.674l14.626-3.368H67.375v-2.032h18.717v2.941
				l-13.557,3.102H86.092z"/>
		</g>
		<g>
			<path style="opacity:0.2;fill:#000100;" d="M74.007,160.024h-3.156c-2.326,0-3.476-1.148-3.476-3.475v-3.958h18.717v3.903
				c0,2.326-1.149,3.478-3.476,3.478h-2.754c-1.658,0-2.514-0.562-2.915-1.632C76.52,159.438,75.664,160.024,74.007,160.024z
				 M69.3,154.705v1.79c0,0.962,0.455,1.417,1.417,1.417h3.69c1.069,0,1.578-0.507,1.578-1.578v-1.629H69.3z M84.167,156.441v-1.736
				h-6.284v1.577c0,1.068,0.508,1.577,1.578,1.577h3.289C83.713,157.859,84.167,157.405,84.167,156.441z"/>
			<path style="opacity:0.2;fill:#000100;" d="M86.092,168.125h-1.978v-3.742h-6.204v3.609h-1.952v-3.609h-6.604v3.797h-1.979
				v-5.936h18.717V168.125z"/>
			<path style="opacity:0.2;fill:#000100;" d="M86.092,172.349H69.354v3.531h-1.979v-5.67h18.717V172.349z"/>
			<path style="opacity:0.2;fill:#000100;" d="M86.092,183.474h-1.978v-3.612h-6.257v3.478h-1.952v-3.478h-8.53v-2.139h18.717
				V183.474z"/>
			<path style="opacity:0.2;fill:#000100;" d="M67.375,192.724v-2.113l3.128-0.455v-3.448l-3.128-0.429v-2.059l18.771,2.888v2.729
				L67.375,192.724z M72.429,186.975v2.913l10.348-1.442L72.429,186.975z"/>
			<path style="opacity:0.2;fill:#000100;" d="M73.418,201.733h-2.727c-2.326,0-3.476-1.148-3.476-3.475v-0.59
				c0-2.3,1.15-3.423,3.423-3.423h3.931v2.087h-4.011c-0.963,0-1.417,0.455-1.417,1.416v0.429c0,0.962,0.455,1.417,1.417,1.417
				h2.807c0.936,0,1.337-0.32,1.792-0.936l1.899-2.62c0.989-1.391,1.952-1.793,3.476-1.793h2.246c2.327,0,3.476,1.151,3.476,3.478
				v0.535c0,2.298-1.149,3.423-3.422,3.423h-3.369v-2.087h3.449c0.962,0,1.417-0.455,1.417-1.417v-0.374
				c0-0.964-0.455-1.419-1.417-1.419h-2.353c-0.936,0-1.337,0.349-1.791,0.964l-1.872,2.594
				C75.905,201.307,75.023,201.733,73.418,201.733z"/>
			<path style="opacity:0.2;fill:#000100;" d="M67.375,205.689h16.739v-2.808h1.978v7.755h-1.978v-2.809H67.375V205.689z"/>
		</g>
	</g>
	<g>
		<path style="fill:#FFFFFF;" d="M150.061,155.788v-8.093h15.856v27.498c0,9.646-4.768,14.415-14.415,14.415h-3.326
			c-9.647,0-14.415-4.77-14.415-14.415v-50.119c0-9.646,4.768-14.413,14.415-14.413h3.326c9.536,0,14.193,4.766,14.193,14.193
			v10.643h-8.649v-10.866c0-3.993-1.885-5.877-5.876-5.877h-2.661c-3.992,0-5.876,1.884-5.876,5.877v51.003
			c0,3.993,1.884,5.877,5.876,5.877h2.883c3.991,0,5.876-1.884,5.876-5.877v-19.846H150.061z"/>
		<path style="fill:#FFFFFF;" d="M198.293,111.326v8.203h-15.524v25.726h14.97v8.093h-14.97v27.388h15.746v8.205h-24.615v-77.615
			H198.293z"/>
		<path style="fill:#FFFFFF;" d="M213.816,188.941v-69.412h-11.643v-8.203h32.156v8.203h-11.643v69.412H213.816z"/>
		<path style="fill:#FFFFFF;" d="M261.937,188.941h-8.869v-77.615h8.869V188.941z"/>
		<path style="fill:#FFFFFF;" d="M295.534,111.326h8.427v77.615h-11.088l-13.971-60.651v60.651h-8.427v-77.615h12.197l12.862,56.214
			V111.326z"/>
		<path style="fill:#FFFFFF;" d="M335.672,111.326h8.76l-12.309,77.835h-9.756l-12.307-77.835h8.979l8.316,59.318L335.672,111.326z"
			/>
		<path style="fill:#FFFFFF;" d="M359.511,188.941h-8.869v-77.615h8.869V188.941z"/>
		<path style="fill:#FFFFFF;" d="M376.585,188.941v-69.412h-11.644v-8.203h32.157v8.203h-11.641v69.412H376.585z"/>
		<path style="fill:#FFFFFF;" d="M426.814,111.326v8.203h-15.522v25.726h14.967v8.093h-14.967v27.388h15.744v8.205h-24.615v-77.615
			H426.814z"/>
		<path style="fill:#FFFFFF;" d="M434.354,111.326h14.637c11.641,0,17.185,5.544,17.185,17.185v43.244
			c0,11.643-5.544,17.187-17.185,17.187h-14.637V111.326z M443.225,180.846h5.322c5.987,0,8.76-2.992,8.76-8.982v-43.462
			c0-5.987-2.772-8.982-8.76-8.982h-5.322V180.846z"/>
	</g>
</g>
</svg>
