<svg xmlns="http://www.w3.org/2000/svg" xmlns:xlink="http://www.w3.org/1999/xlink" version="1.1" x="0px" y="0px" width="1000px" height="300px" viewBox="0 0 1000 300" style="enable-background:new 0 0 1000 300;" xml:space="preserve"><g><rect style="fill:#FFFFFF;" width="1000" height="300"/></g><g><path style="fill:#7DBD2B;" d="M120 230h-10v-12v-4h-4h-6v-30v-4h-4h-4h-4v4v30h-6v-50v-4h-4H66h-4v4v50h-6v-30v-4h-4h-4h-4v4v30 h-6h-4v4v12H24h-4v4v42v4h4h96h4v-4v-42v-4H120z M106 218v12v4v42H96v-58h4v54h2v-54H106z M92 184h4v30h-4V184z M86 218v54h2v-54h4 v58H82v-58H86z M72 272h2v-54h4v58H66v-58h4v54H72z M66 164h12v50h-4v-46h-4v46h-4V164z M62 218v58H52v-58h4v54h2v-54H62z M48 184 h4v30h-4V184z M38 218h4v54h2v-54h4v58H38v-42v-4V218z M24 234h4v38h2v-38h4v42H24V234z M120 276h-10v-42h4v38h2v-38h4V276z"/></g></svg>
