<?xml version="1.0" encoding="UTF-8" standalone="no"?>
<svg width="30px" height="25px" viewBox="0 0 30 25" version="1.1" xmlns="http://www.w3.org/2000/svg" xmlns:xlink="http://www.w3.org/1999/xlink" xmlns:sketch="http://www.bohemiancoding.com/sketch/ns">
    <!-- Generator: Sketch Beta 3.1 (8657) - http://www.bohemiancoding.com/sketch -->
    <title>Twitter</title>
    <desc>Created with Sketch Beta.</desc>
    <defs></defs>
    <g id="Page-1" stroke="none" stroke-width="1" fill="none" fill-rule="evenodd" sketch:type="MSPage">
        <path d="M30,2.9472521 C28.8867188,3.45444443 27.7148438,3.79754512 26.4550781,3.94671933 C27.7441406,3.17101342 28.7109375,1.93286744 29.1650391,0.470960143 C27.9931641,1.18699637 26.6601562,1.70910612 25.2832031,1.99253713 C24.1259766,0.799143414 22.5292969,0.0234375 20.7568359,0.0234375 C17.3583984,0.0234375 14.6191406,2.81299531 14.6191406,6.27383707 C14.6191406,6.76611198 14.6484375,7.27330431 14.7509766,7.72082695 C9.65332031,7.43739594 5.14160156,5.08044336 2.08007812,1.29141832 C1.56738281,2.21629845 1.24511719,3.17101342 1.24511719,4.33457229 C1.24511719,6.48268097 2.32910156,8.39211092 3.99902344,9.52583494 C2.98828125,9.4960001 2.05078125,9.21256909 1.21582031,8.75012903 L1.21582031,8.82471614 C1.21582031,11.8678701 3.33984375,14.4038317 6.15234375,14.9706938 C5.625,15.119868 5.06835938,15.1944551 4.51171875,15.1944551 C4.13085938,15.1944551 3.75,15.1497028 3.36914062,15.0751157 C4.13085938,17.5514077 6.43066406,19.4011679 9.09667969,19.4310028 C7.01660156,21.1315888 4.3359375,22.3995696 1.46484375,22.3995696 C0.966796875,22.3995696 0.483398438,22.3697348 0,22.2951477 C2.70996094,24.0703208 5.9765625,24.8460267 9.44824219,24.8460267 C20.7568359,24.8460267 26.9384766,15.298877 26.9384766,7.01970814 L26.9384766,6.19924997 C28.125,5.3191221 29.1650391,4.23015034 30,2.9472521 L30,2.9472521 Z" id="Twitter" fill="#FFFFFF" sketch:type="MSShapeGroup"></path>
    </g>
</svg>